<svg width="100" height="100" viewBox="0 0 100 100" fill="none" xmlns="http://www.w3.org/2000/svg">
<path d="M81.1114 11.111H64.0743C63.2562 11.111 62.5927 11.7745 62.5927 12.5926C62.5927 13.4106 63.2562 14.0741 64.0743 14.0741H79.63V74.8141H35.2343C37.5088 72.539 31.3543 78.649 44.0987 65.87C45.827 64.1396 45.8961 61.4074 44.2577 59.649C43.8643 59.2266 43.4095 58.8995 42.9212 58.6663L54.6232 46.9643C56.3559 45.2316 56.3559 42.4119 54.6232 40.6791C52.8855 38.9414 50.0747 38.942 48.3375 40.6791L40.8252 48.1914C39.7053 45.8499 36.8369 44.9704 34.6071 46.2489C33.5541 43.8041 30.5992 42.851 28.3219 44.1501C28.1266 43.697 27.851 43.269 27.4949 42.8867C25.7734 41.0436 22.8816 40.9927 21.0992 42.7751L17.9552 45.9191C17.6221 46.1892 17.4072 46.6039 17.4072 47.0693V76.1907C17.4072 77.0808 18.2292 77.7771 19.0065 77.7771C26.0847 77.776 74.0394 77.7771 81.1108 77.7771C81.9289 77.7771 82.5924 77.1136 82.5924 76.2955V12.5913C82.5924 11.7732 81.9289 11.1097 81.1108 11.1097L81.1114 11.111ZM29.2 74.8153C24.6078 74.7717 21.9433 74.7461 20.3707 74.7572L20.3712 47.6958L23.1971 44.87C23.7769 44.2896 24.7434 44.279 25.3311 44.9079C25.8679 45.4838 25.8283 46.429 25.2429 47.0145C25.215 47.0424 25.0911 47.1763 23.7452 48.6188C23.1063 49.3029 23.2614 50.4039 24.0516 50.8905C24.623 51.2454 25.3976 51.1689 25.8903 50.6622L29.4896 46.9579C30.0677 46.3865 31.003 46.3882 31.5783 46.9641C32.1575 47.5433 32.1575 48.4791 31.5794 49.0584C27.1743 53.4785 27.3534 53.2475 27.1983 53.4819C26.8194 54.0556 26.8807 54.8374 27.388 55.3447C27.9672 55.9239 28.9053 55.9228 29.4834 55.3447C34.46 50.3681 32.5566 52.2715 35.7686 49.0589C36.3478 48.4791 37.2841 48.4797 37.8634 49.0589C38.4432 49.6382 38.4427 50.5745 37.8634 51.1538L31.5783 57.4395C30.9996 58.0182 30.9996 58.9562 31.5783 59.5349C32.157 60.1131 33.0944 60.1136 33.6731 59.5349L50.4346 42.7735C51.0144 42.1943 51.9501 42.1943 52.5294 42.7735C53.107 43.3511 53.107 44.2908 52.5294 44.8684C52.3414 45.0564 32.1366 65.2598 31.578 65.8198C30.9993 66.3985 30.9993 67.3365 31.578 67.9152C32.1556 68.4922 33.0936 68.495 33.674 67.9152L39.9691 61.6201C40.5707 61.0291 41.5256 61.0615 42.0913 61.6692C42.6281 62.2451 42.589 63.1903 42.0048 63.7758L35.2358 70.543C32.9416 72.8372 31.8658 74.5872 29.2006 74.8142L29.2 74.8153Z" fill="#629460"/>
<path d="M30.74 46.5386C29.9219 46.5386 29.2584 45.8751 29.2584 45.057L29.259 12.5927C29.259 11.7746 29.9225 11.1111 30.7406 11.1111H46.2963C47.1144 11.1111 47.7778 11.7746 47.7778 12.5927C47.7778 13.4108 47.1143 14.0743 46.2963 14.0743H32.222V45.0571C32.2214 45.8752 31.5585 46.5387 30.7398 46.5387L30.74 46.5386Z" fill="#629460"/>
<path d="M55.1857 17.0372C52.7349 17.0372 50.7416 15.0433 50.7416 12.593C50.7416 10.1422 52.7354 8.14886 55.1857 8.14886C57.6366 8.14886 59.6299 10.1427 59.6299 12.593C59.6299 15.0439 57.636 17.0372 55.1857 17.0372ZM55.1857 11.1114C54.3687 11.1114 53.7041 11.7761 53.7041 12.593C53.7041 13.41 54.3688 14.0746 55.1857 14.0746C56.0027 14.0746 56.6673 13.41 56.6673 12.593C56.6673 11.7761 56.0027 11.1114 55.1857 11.1114Z" fill="#629460"/>
<path d="M54.1657 27.0014C53.2081 26.0946 44.8141 17.9836 44.8141 12.5929C44.8141 6.87472 49.4664 2.22229 55.1847 2.22229C60.9029 2.22229 65.5552 6.87458 65.5552 12.5929C65.5552 17.9834 57.1612 26.0946 56.2042 27.0014C55.6322 27.5433 54.7371 27.5433 54.1657 27.0014ZM55.1846 5.18572C51.1003 5.18572 47.7772 8.50886 47.7772 12.5931C47.7772 15.3923 51.9713 20.5876 55.1846 23.8493C58.3978 20.5876 62.5921 15.3917 62.5921 12.5931C62.5921 8.50886 59.2689 5.18572 55.1846 5.18572Z" fill="#629460"/>
<path d="M67.7786 45.1857H54.4421C53.624 45.1857 52.9606 44.5222 52.9606 43.7041C52.9606 42.8861 53.6241 42.2226 54.4421 42.2226H67.7786C69.4126 42.2226 70.7417 40.8933 70.7417 39.2594C70.7417 37.6227 69.4152 36.2963 67.7786 36.2963L44.0743 36.2968C42.4403 36.2968 41.1111 37.6261 41.1111 39.26C41.1111 40.8967 42.4376 42.2231 44.0743 42.2231H47.4091C48.2272 42.2231 48.8907 42.8866 48.8907 43.7047C48.8907 44.5228 48.2272 45.1863 47.4091 45.1863L44.0743 45.1857C40.8003 45.1857 38.1486 42.534 38.1486 39.26C38.1486 35.9927 40.807 33.3343 44.0743 33.3343H67.7786C71.0526 33.3343 73.7043 35.986 73.7043 39.26C73.7043 42.5273 71.0458 45.1857 67.7786 45.1857Z" fill="#629460"/>
<path d="M69.26 54.0743H57.4078C56.5898 54.0743 55.9263 53.4108 55.9263 52.5927C55.9263 51.7746 56.5898 51.1111 57.4078 51.1111H69.26C70.0781 51.1111 70.7416 51.7746 70.7416 52.5927C70.741 53.4108 70.0781 54.0743 69.26 54.0743Z" fill="#629460"/>
<path d="M69.26 61.4815H57.4078C56.5898 61.4815 55.9263 60.818 55.9263 59.9999C55.9263 59.1818 56.5898 58.5183 57.4078 58.5183H69.26C70.0781 58.5183 70.7416 59.1818 70.7416 59.9999C70.741 60.818 70.0781 61.4815 69.26 61.4815Z" fill="#629460"/>
<path d="M69.26 68.8886H57.4078C56.5898 68.8886 55.9263 68.2251 55.9263 67.407C55.9263 66.5889 56.5898 65.9254 57.4078 65.9254H69.26C70.0781 65.9254 70.7416 66.5889 70.7416 67.407C70.741 68.2251 70.0781 68.8886 69.26 68.8886Z" fill="#629460"/>
</svg>
