<svg width="100" height="100" viewBox="0 0 100 100" fill="none" xmlns="http://www.w3.org/2000/svg">
<path d="M49.8929 72.3743C48.8086 72.3743 47.5809 72.1489 46.2439 71.7025C45.7305 71.5312 45.4537 70.9759 45.6245 70.4625C45.7947 69.9491 46.3471 69.6707 46.8644 69.8431C48.0006 70.2226 49.019 70.4151 49.8923 70.4151C57.842 70.4151 71.0609 59.4078 72.858 45.7008C69.8741 44.4419 62.6399 41.1048 55.538 35.7014C55.9348 37.9297 55.7634 38.4564 55.3332 38.9859C54.9359 39.4731 54.317 39.7013 53.7166 39.5797C46.3015 38.0613 42.8958 34.2477 41.3422 31.3157C41.3232 31.2794 41.3037 31.2431 41.2847 31.2069C39.0136 37.3234 34.6374 45.3213 27.0637 46.5169C27.7975 51.8617 30.6731 57.1513 35.6134 62.2412C36.4605 63.1134 37.359 63.9493 38.2847 64.725C38.6993 65.0738 38.7529 65.6915 38.4047 66.1067C38.0565 66.5213 37.441 66.5749 37.023 66.2267C36.047 65.4075 35.1 64.5258 34.206 63.6067C30.2674 59.5493 27.5626 55.3427 26.1267 51.0537C26.0491 52.6167 25.1524 53.9968 23.855 54.605C25.35 59.1418 29.076 64.6731 34.1747 66.8471C36.1346 67.6831 38.1379 68.1485 40.1301 68.2322L42.7423 68.1127C44.7277 67.8326 46.812 66.9453 48.6144 65.6105C48.6881 65.5569 48.769 65.5128 48.8544 65.4816C49.0413 65.3861 49.259 65.3526 49.4783 65.3928C50.8014 65.6473 52.0263 64.6384 52.0263 63.3761C52.0263 62.2427 51.0648 61.3208 49.8828 61.3208C48.7015 61.3208 47.7394 62.2427 47.7394 63.3761C47.7394 63.918 47.3008 64.356 46.7595 64.356C46.2176 64.356 45.7796 63.9174 45.7796 63.3761C45.7796 61.1618 47.6194 59.3611 49.8823 59.3611C52.1446 59.3611 53.985 61.1618 53.985 63.3761C53.985 65.7075 51.9113 67.5793 49.5196 67.3755C47.5046 68.807 45.1882 69.7578 42.9643 70.0603C42.9353 70.0642 42.9068 70.0664 42.8778 70.0681L40.1785 70.192C40.1484 70.1936 40.121 70.1936 40.0954 70.192C37.8504 70.1038 35.6009 69.5848 33.4074 68.6495C27.6301 66.1858 23.4615 59.9168 21.8928 54.8989C20.2142 54.6595 18.8632 53.2002 18.6589 51.3181L17.5367 40.9577C17.3258 39.0057 18.4201 37.1977 20.0624 36.5905C20.1283 29.0112 20.8387 19.8862 25.2729 14.8477C29.6696 9.85151 37.2623 7.62451 49.8929 7.62451C74.5486 7.62451 79.5157 17.7724 79.7214 36.5174C80.5172 36.7512 81.2159 37.2623 81.7237 37.9928L81.7243 37.9934C82.3141 38.8438 82.5753 39.8968 82.4603 40.9571L81.3381 51.3204C81.0959 53.5525 79.2114 55.1925 77.1455 54.9035C75.1093 54.6228 73.6494 52.5821 73.8923 50.3532L73.9235 50.0669C70.3152 62.3594 58.5678 72.3741 49.8935 72.3741L49.8929 72.3743ZM49.8929 14.1729C61.0207 14.1729 70.6529 22.0145 73.8615 33.6858C74.0177 34.2544 74.1589 34.8353 74.2833 35.4106C74.6343 37.0412 74.8631 38.7276 74.9658 40.4452L75.0155 39.9926C75.2002 38.2951 76.3168 36.9423 77.7643 36.5166C77.5684 18.2723 73.1829 9.58377 49.8929 9.58377C37.875 9.58377 30.7357 11.6072 26.7443 16.1429C22.7589 20.6708 22.093 29.2539 22.0233 36.4601C23.4151 36.7753 24.54 37.9383 24.8939 39.4623C24.9988 38.2815 25.1629 37.1175 25.3861 35.9791C27.9072 23.1403 37.9838 14.1733 49.8932 14.1733L49.8929 14.1729ZM49.8929 55.7958C48.0592 55.7958 46.5682 54.7143 46.5682 53.3856C46.5682 52.8438 47.0068 52.4057 47.5481 52.4057C48.0899 52.4057 48.528 52.8443 48.528 53.3856C48.5816 53.4744 49.0665 53.836 49.8935 53.836C50.7205 53.836 51.2055 53.4744 51.268 53.3231C51.268 52.7813 51.7021 52.3734 52.244 52.3734C52.7847 52.3734 53.2194 52.8432 53.2194 53.3845C53.2177 54.7154 51.7266 55.7958 49.8929 55.7958ZM59.5196 47.6251H53.3595C52.8176 47.6251 52.3795 47.1864 52.3795 46.6451C52.3795 46.1033 52.8182 45.6652 53.3595 45.6652H59.5196C60.0615 45.6652 60.4995 46.1038 60.4995 46.6451C60.4995 47.1864 60.0609 47.6251 59.5196 47.6251ZM46.3595 47.6251H40.1993C39.6575 47.6251 39.2194 47.1864 39.2194 46.6451C39.2194 46.1033 39.658 45.6652 40.1993 45.6652H46.3595C46.9013 45.6652 47.3394 46.1038 47.3394 46.6451C47.3394 47.1864 46.9013 47.6251 46.3595 47.6251Z" fill="#629460"/>
</svg>
