<svg width="100" height="100" viewBox="0 0 100 100" fill="none" xmlns="http://www.w3.org/2000/svg">
<path d="M31.2501 32.5C30.2556 32.5 29.3013 32.8951 28.5983 33.5982C27.8953 34.3013 27.5001 35.2556 27.5001 36.2499V61.2499C27.5001 62.5898 28.215 63.8275 29.3751 64.4976C30.5353 65.1673 31.965 65.1673 33.1251 64.4976C34.2853 63.8274 35.0001 62.5898 35.0001 61.2499V36.2499C35.0001 35.2555 34.605 34.3012 33.9019 33.5982C33.1988 32.8952 32.2445 32.5 31.2502 32.5H31.2501Z" fill="#629460"/>
<path d="M76.3572 65.84L67.6585 57.1413C69.8526 53.518 70.5413 49.1803 69.5771 45.0553C68.6128 40.9308 66.0726 37.3477 62.4995 35.0726V28.75C62.4995 27.7556 62.1044 26.8013 61.4013 26.0983C60.6981 25.3953 59.7438 25.0001 58.7496 25.0001H49.9996V10.0001H51.2496C52.5894 10.0001 53.8271 9.28522 54.4973 8.12506C55.1669 6.9649 55.1669 5.5352 54.4973 4.37506C53.8271 3.2149 52.5894 2.50006 51.2496 2.50006H33.7496C32.4097 2.50006 31.172 3.2149 30.5018 4.37506C29.8322 5.53522 29.8322 6.96492 30.5018 8.12506C31.172 9.28522 32.4097 10.0001 33.7496 10.0001H34.9996V25.0001H26.2496C25.2551 25.0001 24.3008 25.3951 23.5978 26.0983C22.8948 26.8014 22.4996 27.7557 22.4996 28.75V68.75C22.503 69.572 22.7764 70.37 23.2781 71.0211C23.7792 71.6729 24.4807 72.1411 25.2748 72.3548C24.8083 73.4988 24.9344 74.7984 25.613 75.8308C26.291 76.8632 27.4344 77.4948 28.6694 77.5206C29.9043 77.5462 31.0723 76.9619 31.7927 75.9585C32.5131 74.9558 32.6934 73.6617 32.2748 72.4998H52.7291C52.5812 72.9 52.5031 73.3229 52.4992 73.7498C52.4947 74.8715 52.9931 75.9363 53.8563 76.6515C54.7202 77.3675 55.8586 77.6588 56.9602 77.4462C58.0612 77.2336 59.0099 76.5394 59.5451 75.5533C60.0802 74.5679 60.1461 73.3943 59.7242 72.3546C60.5183 72.1409 61.2198 71.6727 61.7209 71.0209C62.2226 70.3697 62.496 69.5716 62.4994 68.7498V63.0171L70.8392 71.3569C71.8247 72.3424 73.2616 72.728 74.6076 72.367C75.9542 72.0065 77.0061 70.9546 77.3665 69.6081C77.7275 68.2621 77.3427 66.8256 76.3572 65.84ZM37.5 9.99999H47.5V25H37.5V9.99999ZM58.75 70H26.25C25.5598 70 25 69.4403 25 68.75V28.75C25 28.0597 25.5598 27.5 26.25 27.5H58.75C59.0815 27.5 59.3996 27.6317 59.634 27.8661C59.8683 28.1004 60 28.4185 60 28.75V33.75C58.6675 33.1853 57.2635 32.8063 55.8276 32.625C52.375 32.188 48.8739 32.8716 45.8388 34.5737C45.3349 33.557 44.3968 32.8243 43.288 32.5816C42.1798 32.3388 41.0208 32.6128 40.1385 33.3265C39.2557 34.0397 38.7451 35.1151 38.7501 36.2501V42.5525C37.6636 45.1664 37.2758 48.0185 37.6251 50.8277C37.8064 52.2635 38.1848 53.6675 38.7501 55.0001V61.2501C38.7467 62.3835 39.2579 63.4577 40.1396 64.1698C41.0213 64.8819 42.1786 65.1559 43.2857 64.9142C44.3934 64.6726 45.3314 63.9416 45.8364 62.9265C47.7483 64.0074 49.8627 64.6844 52.0474 64.9137C54.755 65.1893 57.4889 64.7842 60 63.7351V68.7501C60 69.0816 59.8683 69.3997 59.6339 69.634C59.3996 69.8684 59.0815 70 58.75 70ZM53.75 57.5C51.4292 57.5 49.2038 56.5781 47.563 54.937C45.9219 53.2964 45 51.071 45 48.75C45 46.429 45.9219 44.2037 47.563 42.563C49.2036 40.9219 51.429 40 53.75 40C56.071 40 58.2963 40.9219 59.937 42.563C61.5782 44.2036 62.5 46.429 62.5 48.75C62.4973 51.0697 61.5743 53.2936 59.9342 54.9341C58.2936 56.5741 56.0698 57.4971 53.75 57.5Z" fill="#629460"/>
<path d="M52.1258 52L49.4472 50.2137L48.0599 52.2936L51.8099 54.7936H51.8094C52.0147 54.9292 52.2553 55.0006 52.5008 55C52.5895 54.9995 52.6777 54.9905 52.7647 54.9727C53.0945 54.9013 53.3819 54.6992 53.561 54.4124L59.811 44.4124L57.686 43.0876L52.1258 52Z" fill="#629460"/>
</svg>
