<svg width="100" height="100" viewBox="0 0 100 100" fill="none" xmlns="http://www.w3.org/2000/svg">
<path fill-rule="evenodd" clip-rule="evenodd" d="M47.627 1.90785C47.0751 1.91622 46.6348 2.36991 46.6421 2.92181V10.6311C46.6388 10.8984 46.7431 11.1562 46.9306 11.3465C47.1187 11.5368 47.3748 11.6439 47.6421 11.6439C47.91 11.6439 48.1661 11.5368 48.3542 11.3465C48.5417 11.1562 48.646 10.8984 48.6421 10.6311V2.92181C48.646 2.65172 48.5405 2.39112 48.3491 2.20026C48.1577 2.00886 47.8971 1.90339 47.627 1.90785ZM34.9696 5.90171C34.5633 5.90785 34.2006 6.15952 34.0527 6.53786C33.9049 6.91621 34.0008 7.34647 34.2955 7.62659L39.8189 13.006C40.0081 13.1958 40.2653 13.3018 40.5332 13.3001C40.8011 13.299 41.0572 13.1902 41.2441 12.9982C41.4311 12.8062 41.5332 12.5473 41.5276 12.2795C41.522 12.0116 41.4093 11.7572 41.2146 11.5736L35.6911 6.19412C35.4997 6.00328 35.2397 5.89725 34.9696 5.90171ZM60.1796 5.90171C59.9201 5.90561 59.6718 6.01052 59.4882 6.19356L53.9648 11.573C53.77 11.7566 53.6573 12.0116 53.6517 12.2795C53.6461 12.5473 53.7483 12.8063 53.9352 12.9982C54.1221 13.1902 54.3783 13.299 54.6461 13.3001C54.914 13.3018 55.1713 13.1958 55.3599 13.006L60.8833 7.6266C61.1824 7.34255 61.2762 6.90449 61.1205 6.52335C60.9648 6.14165 60.5914 5.89502 60.1796 5.90171ZM47.6907 13.9514C45.0736 13.9514 42.8737 15.9854 42.8816 18.5497L42.9581 45.2211L34.5563 37.2367C33.726 36.4477 32.6523 36.0481 31.5921 36.0492C30.5323 36.0503 29.4849 36.4532 28.7076 37.2713L28.2579 37.7445C27.4783 38.5648 27.1663 39.6474 27.2517 40.6647C27.3365 41.682 27.7735 42.6501 28.4281 43.4805L42.4515 61.2591C42.4587 61.2691 42.5056 61.3316 42.5687 61.4248C42.6367 61.5253 42.711 61.6793 42.6842 61.6079C42.6725 61.5761 42.7266 61.8054 42.7467 61.9795C42.7657 62.1441 42.7724 62.2625 42.7735 62.2764V65.3138H40.4375C39.6439 65.3138 39.0223 65.8272 38.6673 66.4014C38.3119 66.9757 38.1378 67.666 38.1378 68.4137V74.3669C38.1378 75.1146 38.3119 75.8054 38.6673 76.3792C39.0228 76.9534 39.6439 77.4668 40.4375 77.4668H72.966C73.7596 77.4668 74.3812 76.9534 74.7362 76.3792C75.0917 75.8049 75.2658 75.1146 75.2658 74.3669V68.4137C75.2658 67.666 75.0916 66.9752 74.7362 66.4014C74.3807 65.8272 73.7596 65.3138 72.966 65.3138H70.7786C70.744 64.4946 70.6659 62.3881 70.8551 61.3467C70.9946 60.5788 71.1017 60.4706 71.4003 59.8813C71.6988 59.2914 72.109 58.3813 72.6224 56.4828C73.2183 54.278 73.2914 49.8423 73.3004 45.7317C73.3093 41.6211 73.1927 37.9784 73.1927 37.9784C73.345 35.4215 71.1631 33.3924 68.7117 33.3924C67.5839 33.3924 66.56 33.8266 65.7742 34.533C65.0577 32.99 63.5617 31.9019 61.796 31.9019C60.6827 31.9019 59.6765 32.336 58.9037 33.0425C58.1838 31.5079 56.6922 30.4269 54.9332 30.4269C54.0292 30.4269 53.1961 30.7149 52.5002 31.2004V18.5475C52.5002 15.9867 50.3073 13.9514 47.6907 13.9514ZM47.6907 15.9514C49.2946 15.9514 50.4999 17.1233 50.4999 18.5469V40.3097C50.4965 40.577 50.5998 40.8343 50.7878 41.0246C50.9759 41.2148 51.232 41.322 51.4993 41.322C51.7666 41.322 52.0233 41.2148 52.2108 41.0246C52.3989 40.8343 52.5027 40.577 52.4993 40.3097V36.3454C52.501 36.322 52.501 36.2985 52.501 36.2751V35.1032C52.501 33.5681 53.6054 32.427 54.9324 32.427C56.2594 32.427 57.3654 33.5681 57.3654 35.1032V36.4035C57.3654 36.4247 57.3654 36.4459 57.3665 36.4671C57.366 36.5039 57.3621 36.5396 57.3621 36.5765V41.7579C57.3587 42.0252 57.4625 42.283 57.6506 42.4733C57.8381 42.6636 58.0948 42.7707 58.3621 42.7707C58.6294 42.7707 58.8855 42.6636 59.0736 42.4733C59.2616 42.283 59.3654 42.0252 59.3621 41.7579V36.5765C59.3621 35.0413 60.4681 33.9012 61.7951 33.9012C63.1221 33.9012 64.2281 35.0407 64.2281 36.5765V37.9375C64.2281 37.952 64.2281 37.9665 64.2292 37.9816C64.2292 37.9911 64.2275 38 64.2275 38.0095V43.1111C64.2242 43.3784 64.328 43.6362 64.516 43.8265C64.7035 44.0167 64.9602 44.1239 65.2275 44.1239C65.4948 44.1239 65.751 44.0167 65.939 43.8265C66.1271 43.6362 66.2309 43.3784 66.2275 43.1111V38.0095C66.2275 36.5218 67.3386 35.3923 68.7102 35.3923C70.0785 35.3923 71.3174 36.5447 71.1962 37.9219C71.1929 37.9621 71.1918 38.0023 71.1929 38.0424C71.1929 38.0424 71.3084 41.6563 71.2989 45.7266C71.29 49.7969 71.0947 54.4677 70.6912 55.961C70.2046 57.7613 69.8798 58.4543 69.6148 58.9783C69.3491 59.5023 69.0634 60.0185 68.8865 60.9906C68.6427 62.3343 68.7001 64.2652 68.7554 65.3143H44.7725V62.2362C44.7725 62.2172 44.772 62.1988 44.7714 62.1798C44.7714 62.1798 44.7614 61.9856 44.734 61.7485C44.7067 61.5119 44.6855 61.2535 44.5588 60.9125V60.9114C44.4472 60.6117 44.3278 60.4577 44.2245 60.3054C44.1213 60.153 44.0309 60.0336 44.0309 60.0336C44.0281 60.0297 44.0242 60.0247 44.0214 60.0208L29.998 42.2422C29.5493 41.673 29.2881 41.0402 29.2435 40.5001C29.1983 39.9599 29.3228 39.5285 29.7078 39.1234L29.7072 39.1217L30.157 38.6485C30.9316 37.8332 32.2547 37.8114 33.1772 38.6876L42.1537 47.2171C42.2 47.2964 42.2441 47.3773 42.3178 47.4688C42.5215 47.7216 42.9517 48.1094 43.5912 48.0782C43.9277 48.0614 44.2246 47.8812 44.3864 47.7154C44.5494 47.5491 44.6269 47.3962 44.6867 47.2606C44.8061 46.99 44.8502 46.7601 44.8853 46.5436C44.9556 46.1105 44.959 45.7216 44.959 45.7216C44.9595 45.7138 44.9595 45.706 44.959 45.6981L44.8809 18.5453V18.5442C44.8764 17.1245 46.087 15.9514 47.6907 15.9514ZM31.7122 19.1294H31.7111C31.4438 19.1261 31.1865 19.2299 30.9962 19.4179C30.8059 19.6054 30.6988 19.8621 30.6988 20.1294C30.6988 20.3967 30.8059 20.6529 30.9962 20.8409C31.1865 21.029 31.4438 21.1328 31.7111 21.1294H39.4209C39.6882 21.1328 39.946 21.029 40.1363 20.8409C40.3266 20.6529 40.4332 20.3967 40.4332 20.1294C40.4332 19.8621 40.3266 19.6054 40.1363 19.4179C39.946 19.2299 39.6882 19.1261 39.4209 19.1294H31.7122ZM55.8236 19.1294C55.5563 19.1261 55.2979 19.2299 55.1076 19.4179C54.9174 19.6054 54.8102 19.8621 54.8102 20.1294C54.8102 20.3967 54.9174 20.6529 55.1076 20.8409C55.2979 21.029 55.5557 21.1328 55.823 21.1294H63.5323C63.7996 21.1328 64.0574 21.029 64.2477 20.8409C64.438 20.6529 64.5452 20.3967 64.5452 20.1294C64.5452 19.8621 64.438 19.6054 64.2477 19.4179C64.0574 19.2299 63.7996 19.1261 63.5323 19.1294H55.8236ZM40.4379 67.3137H72.9665C72.8928 67.3137 72.9224 67.2691 73.0368 67.4543C73.1512 67.6396 73.2667 67.9979 73.2667 68.4136V74.3667C73.2667 74.7825 73.1517 75.1424 73.0368 75.3277C72.9793 75.4203 72.943 75.4549 72.9307 75.4666H40.475C40.4628 75.4549 40.4259 75.4203 40.369 75.3277C40.2546 75.1424 40.1391 74.7825 40.1391 74.3667V68.4136C40.1391 67.9979 40.254 67.6396 40.369 67.4543C40.4834 67.2691 40.513 67.3137 40.4393 67.3137H40.4379Z" fill="#629460"/>
</svg>
