<svg width="100" height="100" viewBox="0 0 100 100" fill="none" xmlns="http://www.w3.org/2000/svg">
<path d="M98.4386 12.9844C97.4392 11.9788 96.0786 11.4163 94.6613 11.4224L46.0599 11.4838C44.763 11.4838 43.5192 11.9989 42.6023 12.9157C41.6855 13.8331 41.1705 15.0764 41.1705 16.3732V26.8135H37.0666C32.5019 26.8074 28.0382 28.1595 24.2435 30.6969L15.1709 36.7332C14.5124 37.1724 13.7385 37.4062 12.9472 37.404H1.3239C0.592873 37.404 0.000244141 37.9966 0.000244141 38.7276C0.000244141 39.4587 0.592873 40.0519 1.3239 40.0519H12.9472C14.2591 40.0513 15.542 39.6646 16.6358 38.9397L25.6905 32.9034L25.691 32.9028C29.057 30.6517 33.0169 29.4536 37.0666 29.4608H68.3609C69.2448 29.4608 69.9625 30.1751 69.9669 31.0586C69.9669 33.3711 68.9875 33.7678 68.1048 33.9531L38.099 39.928L37.9227 40.8108C36.1577 49.4419 34.1984 50.1835 31.1537 50.6864C30.4227 50.7444 29.8775 51.3845 29.9361 52.1161C29.9941 52.8471 30.6342 53.3923 31.3658 53.3337C31.4361 53.3421 31.507 53.3421 31.5773 53.3337C33.9511 52.9453 35.7603 52.2043 37.2257 50.298C37.4679 50.755 37.7642 51.1819 38.108 51.5686L38.3373 51.8069C36.7575 52.7656 35.6967 54.3878 35.4517 56.2199L35.3987 56.6524C35.1766 58.3717 35.704 60.1044 36.8463 61.4091C36.9177 61.4956 36.9948 61.5782 37.0757 61.6563C35.4779 62.6039 34.3994 64.2283 34.1454 66.0688C33.93 67.4577 34.1074 68.879 34.6576 70.1726C32.5924 70.0493 30.5801 69.8992 28.9389 69.7139C23.3262 69.0783 22.4172 68.6107 17.1749 65.1156L11.4735 60.2266C11.2274 60.0168 10.9138 59.9041 10.5907 59.9085H1.7654C1.03438 59.9085 0.441747 60.5012 0.441747 61.2328C0.441747 61.9638 1.03438 62.5564 1.7654 62.5564H10.1053L15.4713 67.1016L15.5946 67.1897C20.9606 70.7199 22.3106 71.5497 28.5946 72.2556C34.5867 72.9353 45.1074 73.1384 45.5746 73.1384H53.0233V73.1378C54.6617 73.1378 56.2332 72.4872 57.3916 71.3287C58.5501 70.1697 59.2007 68.5988 59.2007 66.9604V66.0776C59.2002 64.995 58.8676 63.938 58.2476 63.0503H58.9273C62.4574 62.9973 65.405 60.9587 66.1556 57.9935H66.155C66.1678 57.8852 66.1678 57.7758 66.155 57.667V56.008C66.1695 55.0392 65.9128 54.0856 65.4139 53.2547H95.0754C96.3722 53.2547 97.6155 52.7396 98.5329 51.8229C99.4498 50.9054 99.9648 49.6621 99.9648 48.3653V16.771C99.9771 15.3569 99.428 13.9953 98.438 12.9853L98.4386 12.9844ZM39.1858 47.0673V46.723V46.7235C39.3353 45.5634 40.0725 44.5628 41.136 44.0757V48.3915C41.1338 49.2336 41.3526 50.0612 41.7711 50.7917C41.0908 50.6421 40.4742 50.2844 40.0061 49.7682C39.356 49.0283 39.0569 48.0438 39.1858 47.0673ZM56.5543 66.9687C56.5543 67.9051 56.1821 68.803 55.5203 69.4648C54.8579 70.1272 53.96 70.4989 53.0241 70.4989H46.8461L39.0091 70.2958H38.9561L38.9567 70.2963C38.3367 70.2952 37.7486 70.0206 37.3501 69.5458C36.7223 68.6044 36.4941 67.452 36.7145 66.342C36.8312 65.5295 37.2357 64.7856 37.8546 64.2466C38.4734 63.707 39.2653 63.4079 40.0862 63.4034H53.9506C54.6532 63.4034 55.3261 63.6824 55.8227 64.1791C56.3194 64.6752 56.5984 65.3487 56.5984 66.0512L56.5543 66.9687ZM63.5438 57.4726C62.9522 59.4407 60.7905 60.3587 58.8133 60.385L41.7719 60.7644H41.3305H41.3311C40.3517 60.765 39.4198 60.3442 38.7731 59.6093C38.1263 58.8744 37.8266 57.8967 37.9511 56.9257L38.013 56.4933H38.0125C38.1185 55.6802 38.5147 54.933 39.1274 54.3884C39.7401 53.8432 40.5286 53.538 41.3484 53.5279H60.4913C61.3685 53.5084 62.2267 53.7852 62.9271 54.3136C63.3786 54.7852 63.6035 55.4286 63.5449 56.0786L63.5438 57.4726ZM97.538 48.3648H97.5386C97.5358 49.0077 97.2797 49.6238 96.8249 50.0786C96.3701 50.5334 95.7546 50.7895 95.1112 50.7917H46.0597C45.4158 50.7917 44.7986 50.5361 44.3432 50.0813C43.8884 49.626 43.6322 49.0088 43.6322 48.3648V41.5165L68.6436 36.5478C69.6554 36.3675 70.5801 35.8608 71.2765 35.1052C71.9729 34.3502 72.4026 33.3871 72.5003 32.3646H97.5374L97.538 48.3648ZM97.538 22.7706L43.6323 22.7711V16.3727C43.6323 15.7287 43.8885 15.1115 44.3433 14.6567C44.7986 14.2013 45.4158 13.9457 46.0598 13.9457L94.6527 13.8927H94.6521C95.4206 13.8994 96.1533 14.2181 96.6823 14.775C97.2381 15.3085 97.5562 16.0434 97.5645 16.814L97.538 22.7706Z" fill="#629460"/>
</svg>
