<svg width="100" height="100" viewBox="0 0 100 100" fill="none" xmlns="http://www.w3.org/2000/svg">
<path d="M50.68 5.61095C51.2246 5.86541 51.6018 6.41955 51.6018 7.06066C51.6018 7.94404 50.8864 8.66166 50.0008 8.66166C40.9311 8.66166 32.718 12.3385 26.7737 18.2811C20.8311 24.2237 17.1543 32.4362 17.1543 41.5054C17.1543 50.5745 20.8311 58.7882 26.7737 64.7325C32.7163 70.6751 40.9288 74.352 50.0008 74.352C59.0705 74.352 67.2808 70.6751 73.2251 64.7325C79.1677 58.7899 82.8445 50.5774 82.8445 41.5054C82.8445 40.622 83.5599 39.9044 84.4455 39.9044C85.3289 39.9044 86.0465 40.6198 86.0465 41.5054C86.0465 51.4585 82.012 60.4725 75.4891 66.9939C68.9684 73.5147 59.9534 77.5514 50.0034 77.5514C40.0503 77.5514 31.0363 73.5168 24.5148 66.9939C17.9941 60.4732 13.9574 51.4582 13.9574 41.5054C13.9574 31.5551 17.992 22.5411 24.5148 16.0197C29.8474 10.6871 36.8435 7.01966 44.6577 5.85781L43.911 5.43314C43.1454 4.99898 42.8764 4.02409 43.3111 3.25842C43.7453 2.49279 44.7202 2.22382 45.4859 2.65854L50.6817 5.61282L50.68 5.61095ZM48.4021 24.9652C48.4021 24.0819 49.1175 23.3642 50.0031 23.3642C50.8865 23.3642 51.6041 24.0796 51.6041 24.9652V39.9052H58.3268C59.2102 39.9052 59.9278 40.6206 59.9278 41.5062C59.9278 42.3896 59.2124 43.1072 58.3268 43.1072H50.0037C49.1203 43.1072 48.4027 42.3918 48.4027 41.5062V24.9677L48.4021 24.9652ZM50.0031 12.6025C57.983 12.6025 65.2102 15.838 70.4388 21.0674C75.6687 26.2972 78.9037 33.5232 78.9037 41.5031C78.9037 49.483 75.6682 56.7102 70.4388 61.9388C65.209 67.171 57.983 70.406 50.0031 70.406C42.0232 70.406 34.796 67.1705 29.5645 61.9411C24.3347 56.709 21.0997 49.4824 21.0997 41.5025C21.0997 33.5227 24.3351 26.2954 29.5668 21.0668C34.7967 15.837 42.0227 12.6019 50.0025 12.6019L50.0031 12.6025ZM68.176 23.3308C63.5247 18.6795 57.1001 15.8018 50.0031 15.8018C42.906 15.8018 36.4791 18.6797 31.8274 23.3308C27.1757 27.982 24.2984 34.4067 24.2984 41.5037C24.2984 48.6008 27.1762 55.0277 31.8274 59.6794C36.4785 64.3311 42.9061 67.2084 50.0031 67.2084C57.1002 67.2084 63.5271 64.3305 68.176 59.6794C72.8272 55.0281 75.705 48.6007 75.705 41.5037C75.705 34.4065 72.8271 27.9797 68.176 23.3308Z" fill="#629460"/>
</svg>
